<svg width="32" height="32" viewBox="0 0 32 32" fill="none" xmlns="http://www.w3.org/2000/svg">
  <rect width="32" height="32" rx="8" fill="#F8FAFC"/>
  
  <path d="M7 11C7 9.89543 7.89543 9 9 9H11C12.1046 9 13 9.89543 13 11V21C13 22.1046 12.1046 23 11 23H9C7.89543 23 7 22.1046 7 21V11Z" fill="url(#paint0_linear)"/>
  <path d="M14 15C14 13.8954 14.8954 13 16 13H18C19.1046 13 20 13.8954 20 15V21C20 22.1046 19.1046 23 18 23H16C14.8954 23 14 22.1046 14 21V15Z" fill="url(#paint1_linear)"/>
  <path d="M21 11C21 9.89543 21.8954 9 23 9H25C26.1046 9 27 9.89543 27 11V21C27 22.1046 26.1046 23 25 23H23C21.8954 23 21 22.1046 21 21V11Z" fill="url(#paint2_linear)"/>
  
  <path d="M10 13L24 13" stroke="#0EA5E9" stroke-width="2" stroke-linecap="round"/>

  <defs>
    <linearGradient id="paint0_linear" x1="10" y1="9" x2="10" y2="23" gradientUnits="userSpaceOnUse">
      <stop stop-color="#3B82F6"/>
      <stop offset="1" stop-color="#2DD4BF"/>
    </linearGradient>
    <linearGradient id="paint1_linear" x1="17" y1="13" x2="17" y2="23" gradientUnits="userSpaceOnUse">
      <stop stop-color="#3B82F6"/>
      <stop offset="1" stop-color="#2DD4BF"/>
    </linearGradient>
    <linearGradient id="paint2_linear" x1="24" y1="9" x2="24" y2="23" gradientUnits="userSpaceOnUse">
      <stop stop-color="#3B82F6"/>
      <stop offset="1" stop-color="#2DD4BF"/>
    </linearGradient>
  </defs>
</svg>
